<svg xmlns="http://www.w3.org/2000/svg" xmlns:xlink="http://www.w3.org/1999/xlink" width="500" zoomAndPan="magnify" viewBox="0 0 375 374.999991" height="500" preserveAspectRatio="xMidYMid meet" version="1.0"><defs><g/><clipPath id="f977cbc1a0"><path d="M 142 77.636719 L 187.269531 77.636719 L 187.269531 127 L 142 127 Z M 142 77.636719 " clip-rule="nonzero"/></clipPath><clipPath id="36c9db74a3"><path d="M 76 97 L 167 97 L 167 194.296875 L 76 194.296875 Z M 76 97 " clip-rule="nonzero"/></clipPath></defs><path fill="#e25522" d="M 147.257812 116.027344 C 147.148438 116.347656 147.042969 116.667969 146.9375 116.988281 L 144.75 122.976562 C 144.375 122.996094 144 123.011719 143.625 123.035156 C 123.410156 124.242188 104.257812 135.148438 93.207031 153.5 C 93.425781 153.015625 93.648438 152.535156 93.882812 152.050781 C 94.210938 151.339844 94.5625 150.636719 94.921875 149.9375 C 98.230469 143.59375 102.460938 138.035156 107.371094 133.359375 C 117.457031 123.75 130.394531 117.828125 144 116.304688 C 145.078125 116.183594 146.167969 116.089844 147.257812 116.027344 Z M 147.257812 116.027344 " fill-opacity="1" fill-rule="evenodd"/><g clip-path="url(#f977cbc1a0)"><path fill="#003582" d="M 187.402344 102.097656 C 187.296875 102.402344 187.039062 102.683594 186.628906 102.945312 C 185.648438 103.585938 183.839844 104.109375 181.453125 104.53125 C 181.367188 104.546875 181.28125 104.558594 181.203125 104.570312 C 179.804688 104.808594 178.226562 105.011719 176.511719 105.179688 C 175.171875 105.304688 173.757812 105.410156 172.277344 105.5 L 170.714844 107.652344 L 167.71875 111.777344 L 165.582031 114.71875 L 165.574219 114.714844 L 161.792969 119.941406 L 159.527344 123.054688 L 158.730469 124.140625 L 157.828125 125.382812 L 157.570312 125.738281 C 157.101562 126.277344 156.410156 126.621094 155.640625 126.621094 C 154.230469 126.621094 153.089844 125.480469 153.089844 124.070312 C 153.089844 123.925781 153.101562 123.792969 153.125 123.65625 C 153.257812 123.320312 153.394531 122.976562 153.527344 122.640625 C 153.5625 122.550781 153.597656 122.464844 153.632812 122.375 C 153.679688 122.257812 153.730469 122.140625 153.777344 122.023438 L 156.242188 115.265625 C 157.210938 112.390625 158.09375 109.511719 158.878906 106.640625 C 158.90625 106.539062 158.933594 106.4375 158.960938 106.335938 L 142.800781 106.335938 L 142.800781 99.167969 C 144.171875 98.90625 145.546875 98.683594 146.933594 98.492188 C 149.117188 98.199219 151.320312 97.988281 153.523438 97.871094 L 158.960938 97.871094 C 158.953125 97.832031 158.941406 97.796875 158.929688 97.761719 C 158.128906 94.828125 157.230469 91.878906 156.242188 88.9375 L 154.09375 83.054688 L 153.777344 82.183594 C 153.730469 82.0625 153.679688 81.945312 153.632812 81.824219 C 153.597656 81.738281 153.5625 81.652344 153.527344 81.5625 C 153.394531 81.226562 153.257812 80.882812 153.125 80.542969 C 153.101562 80.410156 153.089844 80.277344 153.089844 80.136719 C 153.089844 78.722656 154.230469 77.582031 155.640625 77.582031 C 156.410156 77.582031 157.101562 77.925781 157.570312 78.464844 L 157.828125 78.820312 L 158.730469 80.058594 L 159.527344 81.144531 L 161.324219 83.613281 L 161.792969 84.257812 L 165.574219 89.484375 L 165.582031 89.480469 L 167.71875 92.421875 L 172.277344 98.699219 C 173.757812 98.785156 175.171875 98.890625 176.511719 99.019531 C 178.226562 99.183594 179.804688 99.390625 181.203125 99.628906 C 181.28125 99.640625 181.367188 99.652344 181.453125 99.667969 C 183.839844 100.085938 185.652344 100.613281 186.628906 101.25 C 187.039062 101.515625 187.296875 101.796875 187.402344 102.097656 Z M 187.402344 102.097656 " fill-opacity="1" fill-rule="evenodd"/></g><g clip-path="url(#36c9db74a3)"><path fill="#003582" d="M 162.160156 97.867188 C 161.082031 97.8125 160.007812 97.773438 158.929688 97.757812 C 157.125 97.738281 155.320312 97.769531 153.523438 97.867188 C 151.316406 97.988281 149.117188 98.195312 146.933594 98.492188 C 145.550781 98.679688 144.171875 98.90625 142.800781 99.164062 C 119.195312 103.621094 97.800781 118.472656 85.851562 141.421875 C 77.058594 158.316406 74.792969 176.882812 78.160156 194.238281 C 78.121094 193.875 78.085938 193.507812 78.066406 193.148438 L 78.023438 192.574219 C 77.988281 192.089844 77.957031 191.59375 77.929688 191.105469 C 77.925781 190.933594 77.914062 190.761719 77.90625 190.585938 C 77.894531 190.359375 77.886719 190.136719 77.878906 189.914062 C 77.878906 189.882812 77.875 189.855469 77.875 189.824219 C 77.871094 189.632812 77.859375 189.433594 77.851562 189.242188 C 77.851562 189.175781 77.851562 189.113281 77.851562 189.042969 C 77.847656 188.933594 77.84375 188.824219 77.839844 188.71875 C 77.832031 188.359375 77.828125 188 77.820312 187.636719 L 77.820312 187.621094 C 77.820312 187.433594 77.820312 187.234375 77.816406 187.046875 L 77.816406 186.726562 C 77.816406 142.492188 113.675781 106.628906 157.914062 106.628906 C 158.234375 106.628906 158.558594 106.632812 158.878906 106.636719 C 158.90625 106.535156 158.9375 106.433594 158.964844 106.332031 L 146.914062 106.332031 C 146.921875 106.332031 146.929688 106.328125 146.9375 106.328125 C 146.941406 106.324219 146.945312 106.324219 146.949219 106.324219 C 147.117188 106.304688 147.289062 106.289062 147.457031 106.265625 C 147.863281 106.222656 148.261719 106.183594 148.664062 106.148438 C 148.871094 106.125 149.074219 106.109375 149.28125 106.089844 C 149.65625 106.058594 150.03125 106.027344 150.40625 106.003906 C 150.613281 105.988281 150.820312 105.972656 151.035156 105.960938 C 151.421875 105.9375 151.808594 105.914062 152.199219 105.894531 C 152.390625 105.886719 152.574219 105.878906 152.765625 105.871094 C 153.277344 105.847656 153.785156 105.835938 154.300781 105.824219 C 154.359375 105.824219 154.425781 105.820312 154.488281 105.820312 C 155.058594 105.8125 155.632812 105.804688 156.210938 105.804688 C 156.390625 105.8125 156.570312 105.8125 156.75 105.820312 C 157.148438 105.824219 157.546875 105.828125 157.941406 105.839844 C 158.152344 105.839844 158.367188 105.851562 158.578125 105.863281 C 158.949219 105.878906 159.320312 105.886719 159.695312 105.90625 C 159.90625 105.921875 160.125 105.925781 160.332031 105.941406 C 160.738281 105.964844 161.128906 105.992188 161.523438 106.019531 C 161.550781 106.019531 161.582031 106.023438 161.609375 106.023438 C 162.929688 103.167969 164.6875 100.542969 166.789062 98.246094 C 165.246094 98.078125 163.703125 97.949219 162.160156 97.867188 Z M 162.160156 97.867188 " fill-opacity="1" fill-rule="evenodd"/></g><g fill="#e25522" fill-opacity="1"><g transform="translate(94.944242, 183.004764)"><g><path d="M 22.25 -31.0625 L 22.25 -26.03125 L 9.296875 -26.03125 L 9.296875 -18.0625 L 19.21875 -18.0625 L 19.21875 -13.125 L 9.296875 -13.125 L 9.296875 0 L 3.078125 0 L 3.078125 -31.0625 Z M 22.25 -31.0625 "/></g></g></g><g fill="#e25522" fill-opacity="1"><g transform="translate(116.791199, 183.004764)"><g><path d="M 9.296875 -32.9375 L 9.296875 0 L 3.078125 0 L 3.078125 -32.9375 Z M 9.296875 -32.9375 "/></g></g></g><g fill="#e25522" fill-opacity="1"><g transform="translate(127.425156, 183.004764)"><g><path d="M 26.65625 -24.65625 L 11.390625 11.65625 L 4.765625 11.65625 L 10.09375 -0.625 L 0.21875 -24.65625 L 7.203125 -24.65625 L 13.578125 -7.4375 L 20.03125 -24.65625 Z M 26.65625 -24.65625 "/></g></g></g><g fill="#e25522" fill-opacity="1"><g transform="translate(152.609323, 183.004764)"><g><path d="M 13.34375 -5.734375 L 19.578125 -24.65625 L 26.203125 -24.65625 L 17.09375 0 L 9.515625 0 L 0.4375 -24.65625 L 7.125 -24.65625 Z M 13.34375 -5.734375 "/></g></g></g><g fill="#003582" fill-opacity="1"><g transform="translate(177.537987, 183.004764)"><g><path d="M 14.015625 0.40625 C 11.640625 0.40625 9.503906 -0.117188 7.609375 -1.171875 C 5.710938 -2.234375 4.222656 -3.726562 3.140625 -5.65625 C 2.054688 -7.582031 1.515625 -9.804688 1.515625 -12.328125 C 1.515625 -14.847656 2.066406 -17.070312 3.171875 -19 C 4.285156 -20.925781 5.804688 -22.414062 7.734375 -23.46875 C 9.671875 -24.519531 11.828125 -25.046875 14.203125 -25.046875 C 16.566406 -25.046875 18.710938 -24.519531 20.640625 -23.46875 C 22.578125 -22.414062 24.097656 -20.925781 25.203125 -19 C 26.316406 -17.070312 26.875 -14.847656 26.875 -12.328125 C 26.875 -9.804688 26.300781 -7.582031 25.15625 -5.65625 C 24.019531 -3.726562 22.476562 -2.234375 20.53125 -1.171875 C 18.59375 -0.117188 16.421875 0.40625 14.015625 0.40625 Z M 14.015625 -5.03125 C 15.140625 -5.03125 16.195312 -5.300781 17.1875 -5.84375 C 18.1875 -6.394531 18.984375 -7.21875 19.578125 -8.3125 C 20.171875 -9.414062 20.46875 -10.753906 20.46875 -12.328125 C 20.46875 -14.671875 19.851562 -16.472656 18.625 -17.734375 C 17.394531 -18.992188 15.890625 -19.625 14.109375 -19.625 C 12.328125 -19.625 10.832031 -18.992188 9.625 -17.734375 C 8.425781 -16.472656 7.828125 -14.671875 7.828125 -12.328125 C 7.828125 -9.984375 8.410156 -8.179688 9.578125 -6.921875 C 10.753906 -5.660156 12.234375 -5.03125 14.015625 -5.03125 Z M 14.015625 -5.03125 "/></g></g></g><g fill="#003582" fill-opacity="1"><g transform="translate(204.190525, 183.004764)"><g><path d="M 26.34375 -24.65625 L 26.34375 0 L 20.0625 0 L 20.0625 -3.109375 C 19.269531 -2.046875 18.226562 -1.207031 16.9375 -0.59375 C 15.644531 0.0078125 14.242188 0.3125 12.734375 0.3125 C 10.796875 0.3125 9.085938 -0.09375 7.609375 -0.90625 C 6.128906 -1.726562 4.960938 -2.929688 4.109375 -4.515625 C 3.265625 -6.097656 2.84375 -7.988281 2.84375 -10.1875 L 2.84375 -24.65625 L 9.078125 -24.65625 L 9.078125 -11.078125 C 9.078125 -9.117188 9.566406 -7.613281 10.546875 -6.5625 C 11.523438 -5.507812 12.859375 -4.984375 14.546875 -4.984375 C 16.265625 -4.984375 17.613281 -5.507812 18.59375 -6.5625 C 19.570312 -7.613281 20.0625 -9.117188 20.0625 -11.078125 L 20.0625 -24.65625 Z M 26.34375 -24.65625 "/></g></g></g><g fill="#003582" fill-opacity="1"><g transform="translate(231.866474, 183.004764)"><g><path d="M 12.734375 -25.046875 C 14.566406 -25.046875 16.179688 -24.679688 17.578125 -23.953125 C 18.972656 -23.234375 20.070312 -22.296875 20.875 -21.140625 L 20.875 -24.65625 L 27.140625 -24.65625 L 27.140625 0.171875 C 27.140625 2.460938 26.679688 4.503906 25.765625 6.296875 C 24.847656 8.085938 23.46875 9.507812 21.625 10.5625 C 19.789062 11.625 17.566406 12.15625 14.953125 12.15625 C 11.453125 12.15625 8.582031 11.335938 6.34375 9.703125 C 4.101562 8.066406 2.832031 5.84375 2.53125 3.03125 L 8.71875 3.03125 C 9.050781 4.15625 9.753906 5.050781 10.828125 5.71875 C 11.910156 6.382812 13.226562 6.71875 14.78125 6.71875 C 16.582031 6.71875 18.046875 6.175781 19.171875 5.09375 C 20.304688 4.007812 20.875 2.367188 20.875 0.171875 L 20.875 -3.65625 C 20.070312 -2.488281 18.960938 -1.519531 17.546875 -0.75 C 16.140625 0.0195312 14.535156 0.40625 12.734375 0.40625 C 10.648438 0.40625 8.75 -0.125 7.03125 -1.1875 C 5.3125 -2.257812 3.953125 -3.769531 2.953125 -5.71875 C 1.960938 -7.664062 1.46875 -9.898438 1.46875 -12.421875 C 1.46875 -14.910156 1.960938 -17.117188 2.953125 -19.046875 C 3.953125 -20.972656 5.300781 -22.453125 7 -23.484375 C 8.707031 -24.523438 10.617188 -25.046875 12.734375 -25.046875 Z M 20.875 -12.328125 C 20.875 -13.835938 20.578125 -15.132812 19.984375 -16.21875 C 19.390625 -17.300781 18.585938 -18.128906 17.578125 -18.703125 C 16.566406 -19.285156 15.484375 -19.578125 14.328125 -19.578125 C 13.171875 -19.578125 12.101562 -19.296875 11.125 -18.734375 C 10.144531 -18.171875 9.347656 -17.347656 8.734375 -16.265625 C 8.128906 -15.179688 7.828125 -13.898438 7.828125 -12.421875 C 7.828125 -10.929688 8.128906 -9.628906 8.734375 -8.515625 C 9.347656 -7.410156 10.148438 -6.5625 11.140625 -5.96875 C 12.140625 -5.375 13.203125 -5.078125 14.328125 -5.078125 C 15.484375 -5.078125 16.566406 -5.363281 17.578125 -5.9375 C 18.585938 -6.519531 19.390625 -7.351562 19.984375 -8.4375 C 20.578125 -9.519531 20.875 -10.816406 20.875 -12.328125 Z M 20.875 -12.328125 "/></g></g></g><g fill="#003582" fill-opacity="1"><g transform="translate(260.298854, 183.004764)"><g><path d="M 25.984375 -12.859375 C 25.984375 -11.972656 25.925781 -11.171875 25.8125 -10.453125 L 7.78125 -10.453125 C 7.9375 -8.671875 8.5625 -7.273438 9.65625 -6.265625 C 10.75 -5.265625 12.097656 -4.765625 13.703125 -4.765625 C 16.015625 -4.765625 17.660156 -5.757812 18.640625 -7.75 L 25.359375 -7.75 C 24.648438 -5.375 23.285156 -3.421875 21.265625 -1.890625 C 19.253906 -0.359375 16.78125 0.40625 13.84375 0.40625 C 11.46875 0.40625 9.335938 -0.117188 7.453125 -1.171875 C 5.566406 -2.234375 4.097656 -3.726562 3.046875 -5.65625 C 1.992188 -7.582031 1.46875 -9.804688 1.46875 -12.328125 C 1.46875 -14.878906 1.984375 -17.117188 3.015625 -19.046875 C 4.054688 -20.972656 5.507812 -22.453125 7.375 -23.484375 C 9.25 -24.523438 11.40625 -25.046875 13.84375 -25.046875 C 16.1875 -25.046875 18.285156 -24.539062 20.140625 -23.53125 C 21.992188 -22.53125 23.429688 -21.101562 24.453125 -19.25 C 25.472656 -17.394531 25.984375 -15.265625 25.984375 -12.859375 Z M 19.53125 -14.640625 C 19.5 -16.242188 18.921875 -17.523438 17.796875 -18.484375 C 16.671875 -19.453125 15.289062 -19.9375 13.65625 -19.9375 C 12.113281 -19.9375 10.816406 -19.46875 9.765625 -18.53125 C 8.710938 -17.59375 8.066406 -16.296875 7.828125 -14.640625 Z M 19.53125 -14.640625 "/></g></g></g><g fill="#003582" fill-opacity="1"><g transform="translate(69.412961, 216.765924)"><g><path d="M 5.703125 -7.5625 L 5.703125 -6.546875 L 3.6875 -6.546875 L 3.6875 0 L 2.453125 0 L 2.453125 -6.546875 L 0.421875 -6.546875 L 0.421875 -7.5625 Z M 5.703125 -7.5625 "/></g></g></g><g fill="#003582" fill-opacity="1"><g transform="translate(77.170012, 216.765924)"><g><path d="M 6.84375 -7.5625 L 6.84375 0 L 5.609375 0 L 5.609375 -3.3125 L 2.0625 -3.3125 L 2.0625 0 L 0.8125 0 L 0.8125 -7.5625 L 2.0625 -7.5625 L 2.0625 -4.3125 L 5.609375 -4.3125 L 5.609375 -7.5625 Z M 6.84375 -7.5625 "/></g></g></g><g fill="#003582" fill-opacity="1"><g transform="translate(86.458786, 216.765924)"><g><path d="M 2.0625 -6.5625 L 2.0625 -4.34375 L 4.671875 -4.34375 L 4.671875 -3.328125 L 2.0625 -3.328125 L 2.0625 -1.015625 L 4.984375 -1.015625 L 4.984375 0 L 0.8125 0 L 0.8125 -7.5625 L 4.984375 -7.5625 L 4.984375 -6.5625 Z M 2.0625 -6.5625 "/></g></g></g><g fill="#003582" fill-opacity="1"><g transform="translate(93.781304, 216.765924)"><g/></g></g><g fill="#003582" fill-opacity="1"><g transform="translate(98.235911, 216.765924)"><g><path d="M 5.375 -1.546875 L 2.203125 -1.546875 L 1.65625 0 L 0.375 0 L 3.078125 -7.5625 L 4.515625 -7.5625 L 7.21875 0 L 5.921875 0 Z M 5.03125 -2.5625 L 3.796875 -6.0625 L 2.5625 -2.5625 Z M 5.03125 -2.5625 "/></g></g></g><g fill="#003582" fill-opacity="1"><g transform="translate(107.437779, 216.765924)"><g><path d="M 3.28125 -7.5625 C 4.082031 -7.5625 4.785156 -7.40625 5.390625 -7.09375 C 6.003906 -6.789062 6.472656 -6.347656 6.796875 -5.765625 C 7.128906 -5.191406 7.296875 -4.519531 7.296875 -3.75 C 7.296875 -2.976562 7.128906 -2.3125 6.796875 -1.75 C 6.472656 -1.1875 6.003906 -0.753906 5.390625 -0.453125 C 4.785156 -0.148438 4.082031 0 3.28125 0 L 0.8125 0 L 0.8125 -7.5625 Z M 3.28125 -1.015625 C 4.164062 -1.015625 4.84375 -1.253906 5.3125 -1.734375 C 5.789062 -2.210938 6.03125 -2.882812 6.03125 -3.75 C 6.03125 -4.625 5.789062 -5.304688 5.3125 -5.796875 C 4.84375 -6.296875 4.164062 -6.546875 3.28125 -6.546875 L 2.0625 -6.546875 L 2.0625 -1.015625 Z M 3.28125 -1.015625 "/></g></g></g><g fill="#003582" fill-opacity="1"><g transform="translate(116.770006, 216.765924)"><g><path d="M 7.328125 -7.5625 L 4.484375 0 L 3.0625 0 L 0.203125 -7.5625 L 1.53125 -7.5625 L 3.78125 -1.265625 L 6.03125 -7.5625 Z M 7.328125 -7.5625 "/></g></g></g><g fill="#003582" fill-opacity="1"><g transform="translate(125.939292, 216.765924)"><g><path d="M 5.375 -1.546875 L 2.203125 -1.546875 L 1.65625 0 L 0.375 0 L 3.078125 -7.5625 L 4.515625 -7.5625 L 7.21875 0 L 5.921875 0 Z M 5.03125 -2.5625 L 3.796875 -6.0625 L 2.5625 -2.5625 Z M 5.03125 -2.5625 "/></g></g></g><g fill="#003582" fill-opacity="1"><g transform="translate(135.141159, 216.765924)"><g><path d="M 7.03125 0 L 5.78125 0 L 2.0625 -5.640625 L 2.0625 0 L 0.8125 0 L 0.8125 -7.5625 L 2.0625 -7.5625 L 5.78125 -1.9375 L 5.78125 -7.5625 L 7.03125 -7.5625 Z M 7.03125 0 "/></g></g></g><g fill="#003582" fill-opacity="1"><g transform="translate(144.603746, 216.765924)"><g><path d="M 0.40625 -3.796875 C 0.40625 -4.535156 0.578125 -5.195312 0.921875 -5.78125 C 1.265625 -6.375 1.726562 -6.832031 2.3125 -7.15625 C 2.90625 -7.488281 3.554688 -7.65625 4.265625 -7.65625 C 5.066406 -7.65625 5.78125 -7.457031 6.40625 -7.0625 C 7.03125 -6.664062 7.488281 -6.109375 7.78125 -5.390625 L 6.28125 -5.390625 C 6.082031 -5.785156 5.8125 -6.078125 5.46875 -6.265625 C 5.125 -6.460938 4.722656 -6.5625 4.265625 -6.5625 C 3.765625 -6.5625 3.316406 -6.445312 2.921875 -6.21875 C 2.535156 -6 2.226562 -5.675781 2 -5.25 C 1.78125 -4.832031 1.671875 -4.347656 1.671875 -3.796875 C 1.671875 -3.234375 1.78125 -2.742188 2 -2.328125 C 2.226562 -1.910156 2.535156 -1.585938 2.921875 -1.359375 C 3.316406 -1.128906 3.765625 -1.015625 4.265625 -1.015625 C 4.722656 -1.015625 5.125 -1.109375 5.46875 -1.296875 C 5.8125 -1.492188 6.082031 -1.796875 6.28125 -2.203125 L 7.78125 -2.203125 C 7.488281 -1.472656 7.03125 -0.910156 6.40625 -0.515625 C 5.78125 -0.128906 5.066406 0.0625 4.265625 0.0625 C 3.554688 0.0625 2.90625 -0.0976562 2.3125 -0.421875 C 1.726562 -0.753906 1.265625 -1.210938 0.921875 -1.796875 C 0.578125 -2.390625 0.40625 -3.054688 0.40625 -3.796875 Z M 0.40625 -3.796875 "/></g></g></g><g fill="#003582" fill-opacity="1"><g transform="translate(154.631224, 216.765924)"><g><path d="M 2.0625 -6.5625 L 2.0625 -4.34375 L 4.671875 -4.34375 L 4.671875 -3.328125 L 2.0625 -3.328125 L 2.0625 -1.015625 L 4.984375 -1.015625 L 4.984375 0 L 0.8125 0 L 0.8125 -7.5625 L 4.984375 -7.5625 L 4.984375 -6.5625 Z M 2.0625 -6.5625 "/></g></g></g><g fill="#003582" fill-opacity="1"><g transform="translate(161.953743, 216.765924)"><g><path d="M 3.28125 -7.5625 C 4.082031 -7.5625 4.785156 -7.40625 5.390625 -7.09375 C 6.003906 -6.789062 6.472656 -6.347656 6.796875 -5.765625 C 7.128906 -5.191406 7.296875 -4.519531 7.296875 -3.75 C 7.296875 -2.976562 7.128906 -2.3125 6.796875 -1.75 C 6.472656 -1.1875 6.003906 -0.753906 5.390625 -0.453125 C 4.785156 -0.148438 4.082031 0 3.28125 0 L 0.8125 0 L 0.8125 -7.5625 Z M 3.28125 -1.015625 C 4.164062 -1.015625 4.84375 -1.253906 5.3125 -1.734375 C 5.789062 -2.210938 6.03125 -2.882812 6.03125 -3.75 C 6.03125 -4.625 5.789062 -5.304688 5.3125 -5.796875 C 4.84375 -6.296875 4.164062 -6.546875 3.28125 -6.546875 L 2.0625 -6.546875 L 2.0625 -1.015625 Z M 3.28125 -1.015625 "/></g></g></g><g fill="#003582" fill-opacity="1"><g transform="translate(171.28597, 216.765924)"><g/></g></g><g fill="#003582" fill-opacity="1"><g transform="translate(175.740571, 216.765924)"><g><path d="M 5.375 -1.546875 L 2.203125 -1.546875 L 1.65625 0 L 0.375 0 L 3.078125 -7.5625 L 4.515625 -7.5625 L 7.21875 0 L 5.921875 0 Z M 5.03125 -2.5625 L 3.796875 -6.0625 L 2.5625 -2.5625 Z M 5.03125 -2.5625 "/></g></g></g><g fill="#003582" fill-opacity="1"><g transform="translate(184.942433, 216.765924)"><g><path d="M 7.328125 -7.5625 L 4.484375 0 L 3.0625 0 L 0.203125 -7.5625 L 1.53125 -7.5625 L 3.78125 -1.265625 L 6.03125 -7.5625 Z M 7.328125 -7.5625 "/></g></g></g><g fill="#003582" fill-opacity="1"><g transform="translate(194.111714, 216.765924)"><g><path d="M 2.0625 -7.5625 L 2.0625 0 L 0.8125 0 L 0.8125 -7.5625 Z M 2.0625 -7.5625 "/></g></g></g><g fill="#003582" fill-opacity="1"><g transform="translate(198.609768, 216.765924)"><g><path d="M 5.375 -1.546875 L 2.203125 -1.546875 L 1.65625 0 L 0.375 0 L 3.078125 -7.5625 L 4.515625 -7.5625 L 7.21875 0 L 5.921875 0 Z M 5.03125 -2.5625 L 3.796875 -6.0625 L 2.5625 -2.5625 Z M 5.03125 -2.5625 "/></g></g></g><g fill="#003582" fill-opacity="1"><g transform="translate(207.811641, 216.765924)"><g><path d="M 5.703125 -7.5625 L 5.703125 -6.546875 L 3.6875 -6.546875 L 3.6875 0 L 2.453125 0 L 2.453125 -6.546875 L 0.421875 -6.546875 L 0.421875 -7.5625 Z M 5.703125 -7.5625 "/></g></g></g><g fill="#003582" fill-opacity="1"><g transform="translate(215.568698, 216.765924)"><g><path d="M 2.0625 -7.5625 L 2.0625 0 L 0.8125 0 L 0.8125 -7.5625 Z M 2.0625 -7.5625 "/></g></g></g><g fill="#003582" fill-opacity="1"><g transform="translate(220.066752, 216.765924)"><g><path d="M 4.265625 0.078125 C 3.554688 0.078125 2.90625 -0.0820312 2.3125 -0.40625 C 1.726562 -0.738281 1.265625 -1.203125 0.921875 -1.796875 C 0.578125 -2.390625 0.40625 -3.054688 0.40625 -3.796875 C 0.40625 -4.535156 0.578125 -5.195312 0.921875 -5.78125 C 1.265625 -6.375 1.726562 -6.832031 2.3125 -7.15625 C 2.90625 -7.488281 3.554688 -7.65625 4.265625 -7.65625 C 4.972656 -7.65625 5.617188 -7.488281 6.203125 -7.15625 C 6.796875 -6.832031 7.265625 -6.375 7.609375 -5.78125 C 7.953125 -5.195312 8.125 -4.535156 8.125 -3.796875 C 8.125 -3.054688 7.953125 -2.390625 7.609375 -1.796875 C 7.265625 -1.203125 6.796875 -0.738281 6.203125 -0.40625 C 5.617188 -0.0820312 4.972656 0.078125 4.265625 0.078125 Z M 4.265625 -1 C 4.765625 -1 5.207031 -1.113281 5.59375 -1.34375 C 5.988281 -1.570312 6.296875 -1.894531 6.515625 -2.3125 C 6.734375 -2.738281 6.84375 -3.234375 6.84375 -3.796875 C 6.84375 -4.347656 6.734375 -4.832031 6.515625 -5.25 C 6.296875 -5.675781 5.988281 -6 5.59375 -6.21875 C 5.207031 -6.445312 4.765625 -6.5625 4.265625 -6.5625 C 3.765625 -6.5625 3.316406 -6.445312 2.921875 -6.21875 C 2.535156 -6 2.226562 -5.675781 2 -5.25 C 1.78125 -4.832031 1.671875 -4.347656 1.671875 -3.796875 C 1.671875 -3.234375 1.78125 -2.738281 2 -2.3125 C 2.226562 -1.894531 2.535156 -1.570312 2.921875 -1.34375 C 3.316406 -1.113281 3.765625 -1 4.265625 -1 Z M 4.265625 -1 "/></g></g></g><g fill="#003582" fill-opacity="1"><g transform="translate(230.213724, 216.765924)"><g><path d="M 7.03125 0 L 5.78125 0 L 2.0625 -5.640625 L 2.0625 0 L 0.8125 0 L 0.8125 -7.5625 L 2.0625 -7.5625 L 5.78125 -1.9375 L 5.78125 -7.5625 L 7.03125 -7.5625 Z M 7.03125 0 "/></g></g></g><g fill="#003582" fill-opacity="1"><g transform="translate(239.676316, 216.765924)"><g/></g></g><g fill="#003582" fill-opacity="1"><g transform="translate(244.130917, 216.765924)"><g><path d="M 5.375 -1.546875 L 2.203125 -1.546875 L 1.65625 0 L 0.375 0 L 3.078125 -7.5625 L 4.515625 -7.5625 L 7.21875 0 L 5.921875 0 Z M 5.03125 -2.5625 L 3.796875 -6.0625 L 2.5625 -2.5625 Z M 5.03125 -2.5625 "/></g></g></g><g fill="#003582" fill-opacity="1"><g transform="translate(253.332779, 216.765924)"><g><path d="M 0.40625 -3.796875 C 0.40625 -4.535156 0.578125 -5.195312 0.921875 -5.78125 C 1.265625 -6.375 1.726562 -6.832031 2.3125 -7.15625 C 2.90625 -7.488281 3.554688 -7.65625 4.265625 -7.65625 C 5.066406 -7.65625 5.78125 -7.457031 6.40625 -7.0625 C 7.03125 -6.664062 7.488281 -6.109375 7.78125 -5.390625 L 6.28125 -5.390625 C 6.082031 -5.785156 5.8125 -6.078125 5.46875 -6.265625 C 5.125 -6.460938 4.722656 -6.5625 4.265625 -6.5625 C 3.765625 -6.5625 3.316406 -6.445312 2.921875 -6.21875 C 2.535156 -6 2.226562 -5.675781 2 -5.25 C 1.78125 -4.832031 1.671875 -4.347656 1.671875 -3.796875 C 1.671875 -3.234375 1.78125 -2.742188 2 -2.328125 C 2.226562 -1.910156 2.535156 -1.585938 2.921875 -1.359375 C 3.316406 -1.128906 3.765625 -1.015625 4.265625 -1.015625 C 4.722656 -1.015625 5.125 -1.109375 5.46875 -1.296875 C 5.8125 -1.492188 6.082031 -1.796875 6.28125 -2.203125 L 7.78125 -2.203125 C 7.488281 -1.472656 7.03125 -0.910156 6.40625 -0.515625 C 5.78125 -0.128906 5.066406 0.0625 4.265625 0.0625 C 3.554688 0.0625 2.90625 -0.0976562 2.3125 -0.421875 C 1.726562 -0.753906 1.265625 -1.210938 0.921875 -1.796875 C 0.578125 -2.390625 0.40625 -3.054688 0.40625 -3.796875 Z M 0.40625 -3.796875 "/></g></g></g><g fill="#003582" fill-opacity="1"><g transform="translate(263.360252, 216.765924)"><g><path d="M 5.375 -1.546875 L 2.203125 -1.546875 L 1.65625 0 L 0.375 0 L 3.078125 -7.5625 L 4.515625 -7.5625 L 7.21875 0 L 5.921875 0 Z M 5.03125 -2.5625 L 3.796875 -6.0625 L 2.5625 -2.5625 Z M 5.03125 -2.5625 "/></g></g></g><g fill="#003582" fill-opacity="1"><g transform="translate(272.562125, 216.765924)"><g><path d="M 3.28125 -7.5625 C 4.082031 -7.5625 4.785156 -7.40625 5.390625 -7.09375 C 6.003906 -6.789062 6.472656 -6.347656 6.796875 -5.765625 C 7.128906 -5.191406 7.296875 -4.519531 7.296875 -3.75 C 7.296875 -2.976562 7.128906 -2.3125 6.796875 -1.75 C 6.472656 -1.1875 6.003906 -0.753906 5.390625 -0.453125 C 4.785156 -0.148438 4.082031 0 3.28125 0 L 0.8125 0 L 0.8125 -7.5625 Z M 3.28125 -1.015625 C 4.164062 -1.015625 4.84375 -1.253906 5.3125 -1.734375 C 5.789062 -2.210938 6.03125 -2.882812 6.03125 -3.75 C 6.03125 -4.625 5.789062 -5.304688 5.3125 -5.796875 C 4.84375 -6.296875 4.164062 -6.546875 3.28125 -6.546875 L 2.0625 -6.546875 L 2.0625 -1.015625 Z M 3.28125 -1.015625 "/></g></g></g><g fill="#003582" fill-opacity="1"><g transform="translate(281.894346, 216.765924)"><g><path d="M 2.0625 -6.5625 L 2.0625 -4.34375 L 4.671875 -4.34375 L 4.671875 -3.328125 L 2.0625 -3.328125 L 2.0625 -1.015625 L 4.984375 -1.015625 L 4.984375 0 L 0.8125 0 L 0.8125 -7.5625 L 4.984375 -7.5625 L 4.984375 -6.5625 Z M 2.0625 -6.5625 "/></g></g></g><g fill="#003582" fill-opacity="1"><g transform="translate(289.216871, 216.765924)"><g><path d="M 8.78125 -7.5625 L 8.78125 0 L 7.53125 0 L 7.53125 -5.171875 L 5.234375 0 L 4.375 0 L 2.0625 -5.171875 L 2.0625 0 L 0.8125 0 L 0.8125 -7.5625 L 2.15625 -7.5625 L 4.8125 -1.625 L 7.453125 -7.5625 Z M 8.78125 -7.5625 "/></g></g></g><g fill="#003582" fill-opacity="1"><g transform="translate(300.428464, 216.765924)"><g><path d="M 6.421875 -7.5625 L 3.921875 -2.734375 L 3.921875 0 L 2.671875 0 L 2.671875 -2.734375 L 0.15625 -7.5625 L 1.546875 -7.5625 L 3.296875 -3.84375 L 5.046875 -7.5625 Z M 6.421875 -7.5625 "/></g></g></g><path stroke-linecap="butt" transform="matrix(0.75, -0.000000000000000279, 0.000000000000000279, 0.75, 57.716276, 201.048692)" fill="none" stroke-linejoin="miter" d="M -0.00190955 1.997577 L 356.367906 1.997577 " stroke="#000000" stroke-width="4" stroke-opacity="1" stroke-miterlimit="4"/></svg>